<svg width="32" height="36" viewBox="0 0 32 36" fill="none" xmlns="http://www.w3.org/2000/svg">
<path d="M30.2639 15.0773C30.0792 13.3355 29.6936 12.8278 29.4205 12.5915C28.9867 12.2239 28.1995 12.0926 27.1472 12.0138C25.4603 11.8913 22.5926 11.8125 19.5 11.8125C16.3994 11.8125 13.5397 11.8825 11.8528 12.0138C10.8005 12.0926 10.0133 12.2239 9.57953 12.5915C9.30641 12.8278 8.92887 13.3355 8.73609 15.0773C8.46297 17.5893 8.46297 23.3137 8.73609 25.8257C8.92887 27.5675 9.30641 28.0752 9.57953 28.3115C10.0133 28.6791 10.8005 28.8104 11.8528 28.8892C13.5397 29.0117 16.3994 29.0905 19.5 29.0905C22.6006 29.0905 25.4603 29.0117 27.1472 28.8892C28.1995 28.8104 28.9867 28.6791 29.4205 28.3115C29.6936 28.0839 30.0711 27.5675 30.2639 25.8257C30.537 23.3137 30.537 17.5893 30.2639 15.0773ZM16.8492 24.2064V16.6878L23.4682 20.4427L16.8492 24.2064Z" fill="white"/>
</svg>
